<svg xmlns="http://www.w3.org/2000/svg" viewBox="0 0 77.39 95.69"><defs><style>.cls-1{fill:#dc2626;}</style></defs><title>Asset 2</title><g id="Layer_2" data-name="Layer 2"><g id="Layer_23" data-name="Layer 23"><path class="cls-1" d="M77.08,63.23c.57,7.32-2.6,13-8.86,16.06a19.77,19.77,0,0,1-8.16,2.13,31.92,31.92,0,0,1-8.19-.54A16.89,16.89,0,0,1,38.33,65.73a21.06,21.06,0,0,1,.4-7.39A17.2,17.2,0,0,1,53.18,45.23a21.67,21.67,0,0,1,9.74.46c1.59.49,3.09,1.26,4.78,2l.62-2a15.47,15.47,0,0,1,5.6.07,74.19,74.19,0,0,1,0,12.11,7,7,0,0,1-2.79.23c-1,0-1.93,0-2.95,0-.26-.51-.45-.89-.66-1.27a10.31,10.31,0,0,0-11.22-5.23,10,10,0,0,0-7.84,8.64,16.72,16.72,0,0,0,.7,8.12,10,10,0,0,0,12.72,6.13,6.67,6.67,0,0,0,4.47-5.15c-1.81-.44-3.69.09-5.57-.34-.66-1.82-.18-3.66-.32-5.56A6.19,6.19,0,0,1,61.83,63q7,0,14.09,0A7.69,7.69,0,0,1,77.08,63.23Z"/><path class="cls-1" d="M11.17,51.67,6.7,51.44a23.91,23.91,0,0,1,0-5.69A8.8,8.8,0,0,1,8,45.47c4-.24,19.67-.06,21.68.26a7.57,7.57,0,0,1,.21,2.76c0,.88,0,1.75,0,2.67-1.45.77-2.94.12-4.27.54-.44.39-.15.82,0,1.19q3.31,10.52,6.65,21a5.07,5.07,0,0,0,.48.83l3.89.31c.39,1.84.1,3.6.2,5.41a3.32,3.32,0,0,1-1,.4q-7.85,0-15.7,0a2.85,2.85,0,0,1-.67-.23,20.07,20.07,0,0,1-.11-5.39c1.31-.7,2.72,0,4.08-.62,0-1.92-.87-3.67-1.3-5.42a32.9,32.9,0,0,0-9-.08,24.8,24.8,0,0,0-1.74,5.59l4.31.35a15,15,0,0,1,0,5.58,112.75,112.75,0,0,1-15.27,0C-.19,79.84.07,78.85,0,77.9s0-1.75.08-2.64c1.32-.7,2.72-.09,4.09-.56a9.89,9.89,0,0,0,.6-1.34C6.91,66.23,9,59.1,11.17,51.67Zm9.25,11.6c-.81-2.91-1.52-5.53-2.27-8.13-.08-.26-.36-.47-.72-.9l-1,3.28c-.29.92-.63,1.83-.84,2.77s-.89,1.91-.44,3.13A17.44,17.44,0,0,0,20.42,63.27Z"/><path class="cls-1" d="M21.4,32.07a9.32,9.32,0,0,1,4.49-.7,18.14,18.14,0,0,0,1,2,3,3,0,0,0,5.07-.23,5.75,5.75,0,0,0-.06-5.38,2.88,2.88,0,0,0-3.94-1A12.28,12.28,0,0,0,26.4,28a15.46,15.46,0,0,1-3.67-1.77,70,70,0,0,1,.7-12.15A81.75,81.75,0,0,1,36.59,14c.59,1.73.63,2.73.17,5.55-.63.05-1.31.13-2,.17-1,.06-1.75-.29-1.71-1.51-2-.49-3.95-.15-5.72-.23-.76.83-.55,1.67-.6,2.44s0,1.56,0,2.56c.66-.18,1.13-.33,1.6-.44,6.15-1.51,9.15,2.24,9.82,6.16a9.69,9.69,0,0,1-.76,5.7,6.82,6.82,0,0,1-4.66,4,11.11,11.11,0,0,1-6,0C23.53,37.51,22,35.25,21.4,32.07Z"/><path class="cls-1" d="M66.71,33.89a15.44,15.44,0,0,0,6.47.09l.45-2.59a5.62,5.62,0,0,1,3.62-.06,36.19,36.19,0,0,1-.07,6.75c-2.68.55-5.32.23-7.94.24a43.12,43.12,0,0,1-7.72-.2,11.52,11.52,0,0,1,2.42-8.53c1.05-1.3,2.29-2.46,3.45-3.67s2.13-2.13,3.13-3.25a3.92,3.92,0,0,0,.94-3.22,2.24,2.24,0,0,0-4.14-1,6.89,6.89,0,0,0-.65,1.73,17.7,17.7,0,0,0-.27,1.9c-1.5.67-2.92.25-4.33.07-.61-4.86,1.57-7.92,6.09-8.73a9.1,9.1,0,0,1,5,.5,6.79,6.79,0,0,1,2.42,10.84,24,24,0,0,1-3,2.59c-1.3,1.06-2.68,2-3.93,3.16A4.91,4.91,0,0,0,66.71,33.89Z"/><path class="cls-1" d="M14.38,25.44a11,11,0,0,0,1.07.74c4,2,3.67,8.93-.25,11.19A10.15,10.15,0,0,1,5,37.67C2.5,36.39,1.67,34,1.48,31.31c1.72-.62,2.08-.66,4.61-.47.17.62.3,1.3.55,1.94a2.67,2.67,0,0,0,2.85,1.92,2.94,2.94,0,0,0,2.8-2.06c.87-2.58-.34-4.59-3-5l-1.08-.16a10.61,10.61,0,0,1-.09-3.82c.68-.23,1.36-.4,2-.68a2.92,2.92,0,0,0,1.75-3.48,2.49,2.49,0,0,0-2-1.9,2.29,2.29,0,0,0-2.48,1.15,14.31,14.31,0,0,0-.66,1.88c-.68,0-1.38,0-2.07,0s-1.39-.19-2.16-.29c-.5-1.79.28-3.15,1.25-4.43a6,6,0,0,1,2.81-1.95,9.78,9.78,0,0,1,7,.11A6.32,6.32,0,0,1,15.94,24C15.53,24.43,15,24.82,14.38,25.44Z"/><path class="cls-1" d="M44.31,34.45l2.84-.38a23.45,23.45,0,0,0,.24-5.33c0-1.77,0-3.55,0-5.32s.09-3.52-.09-5.3l-3.16-.3c-.64-1.19-.28-2.41-.26-3.68,1.47-.65,3-.28,4.46-.33a22.28,22.28,0,0,1,4.36.12c.06.78.16,1.47.16,2.15,0,5.05,0,10.11,0,15.16,0,.88,0,1.75.08,2.72l2.91.55A7.75,7.75,0,0,1,56,38c-1.79.48-8.69.58-11.61.17C43.87,36.46,43.87,36.46,44.31,34.45Z"/><path class="cls-1" d="M59.46.61V5.89a21.41,21.41,0,0,1-3.66.64c-10.07.05-20.14,0-30.22,0-1.06,0-2.13-.2-3.32-.31-1.25-2-.75-3.8-.35-5.56C27.35-.18,52.74-.24,59.46.61Z"/><path class="cls-1" d="M59.46,89.73V95a21.41,21.41,0,0,1-3.66.64c-10.07.05-20.14,0-30.22,0-1.06,0-2.13-.2-3.32-.31-1.25-2-.75-3.8-.35-5.56C27.35,88.94,52.74,88.88,59.46,89.73Z"/></g></g></svg>