<svg xmlns="http://www.w3.org/2000/svg" viewBox="0 0 419.33 247.47"><defs><style>.cls-1{fill:none;stroke:#c92134;stroke-miterlimit:10;stroke-width:4.33px;}.cls-2{fill:#c92134;}.cls-3{fill:#bca79a;}.cls-4{fill:#1b0000;}</style></defs><title>Asset 1</title><g id="Layer_2" data-name="Layer 2"><g id="Layer_23" data-name="Layer 23"><rect class="cls-1" x="2.16" y="2.16" width="415" height="243.14"/><path class="cls-2" d="M151.56,109.48c0-1.16-.06-2.21.05-3.32.26,0,.49-.07.72-.07,1,0,2.06,0,3.08,0,.68,0,1.36-.11,2-.2a4.89,4.89,0,0,0,.78-.24,4.31,4.31,0,0,0,.07-.54q0-24.26,0-48.49a2.48,2.48,0,0,0-1.59-.49c-1.27-.07-2.53-.09-3.8-.12l-1.2,0a9.46,9.46,0,0,1-.1-3.26c.17,0,.36-.08.56-.11a4.69,4.69,0,0,1,.51,0h20.25a30.1,30.1,0,0,1,8.92,1.27,18.09,18.09,0,0,1,6.34,3.3,11.36,11.36,0,0,1,3.85,5.71,10.9,10.9,0,0,1-4.06,12c-.49.37-1,.67-1.55,1l-.57.38,1,.47a20.13,20.13,0,0,1,7.68,5.87,15.89,15.89,0,0,1,3.29,6.89,15.43,15.43,0,0,1-2.94,12.71,17.84,17.84,0,0,1-8.43,6,23.89,23.89,0,0,1-8.16,1.39c-8.6,0-17.2,0-25.8,0C152.25,109.53,152,109.5,151.56,109.48Zm10.62-3.58h16.28a20.27,20.27,0,0,0,4.28-.45A16.25,16.25,0,0,0,190,102a12.29,12.29,0,0,0,3.07-14.92,15.45,15.45,0,0,0-5.23-5.83,18.54,18.54,0,0,0-10.15-3.19c-2.81-.06-5.62,0-8.43,0a6.12,6.12,0,0,0-.65.07c0,.46,0,.86,0,1.27q0,10.95,0,21.9a4,4,0,0,1-.07,1.2,11.83,11.83,0,0,1-3.73,0c0-.32,0-.65,0-1q0-3.14,0-6.27,0-9.82,0-19.64a2.06,2.06,0,0,1,.11-1.09,1.89,1.89,0,0,0,1.46-.64c.26-.22.51-.45.78-.67a5.34,5.34,0,0,1,.48-.3l.11,1.53c.3,0,.53.05.77.06l2.67.07c1.88,0,3.77.08,5.65.1a16.88,16.88,0,0,0,5.56-.84,10.63,10.63,0,0,0,4.13-2.43,7.53,7.53,0,0,0,.45-10.25,12.33,12.33,0,0,0-1.81-1.66,14.09,14.09,0,0,0-4.32-2.11,26.51,26.51,0,0,0-7.8-1.16c-3.39,0-6.78,0-10.18,0a4,4,0,0,0-.66.11C162,57.41,162,105,162.18,105.9Z"/><path class="cls-2" d="M33.54,109.92c0-1.16-.06-2.21.05-3.32.26,0,.49-.07.72-.07,1.1,0,2.19,0,3.29,0a17.78,17.78,0,0,0,1.94-.21,3.32,3.32,0,0,0,.64-.23c.13-.88.14-48.25,0-49.22a4,4,0,0,0-1.65-.33l-3.91-.06a1.7,1.7,0,0,1-1-.12,12.81,12.81,0,0,1,0-3.2A1.43,1.43,0,0,1,34,53h9.56a3.13,3.13,0,0,1,.44.07c.13,1.29,0,2.55.06,3.81s0,2.54,0,3.8v45.36c.3.35.63.25.92.25h6c2.12,0,4.25,0,6.37,0A22.77,22.77,0,0,0,78.35,90.38a28.12,28.12,0,0,0,1.31-10.94,26,26,0,0,0-2.12-8.95,22.32,22.32,0,0,0-16.68-13.4,24.78,24.78,0,0,0-4.59-.46c-1.78,0-3.56,0-5.35,0-.2,0-.4,0-.62,0a1.79,1.79,0,0,0-.13,1q0,5.14,0,10.28,0,5.76,0,11.51.05,11.62.11,23.23c0,.34,0,.67,0,1a9.12,9.12,0,0,1-3.52.07c0-.18-.07-.37-.08-.57s0-.55,0-.82q0-24,0-47.91a5.69,5.69,0,0,1,.07-1.38c.29,0,.55-.06.82-.06,3,0,6.1,0,9.15,0a26.35,26.35,0,0,1,25.1,18.14,31.74,31.74,0,0,1,1.65,10.4,30.21,30.21,0,0,1-2.07,11.35,25.88,25.88,0,0,1-19,16.37,25.88,25.88,0,0,1-5.91.67h-22C34.2,110,33.94,109.94,33.54,109.92Z"/><path class="cls-2" d="M198.44,109.93c0-1.17,0-2.22,0-3.32.29,0,.52-.08.75-.08,1.13,0,2.26,0,3.39,0a15.78,15.78,0,0,0,1.83-.21,3.16,3.16,0,0,0,.62-.22l.07-.15a.31.31,0,0,0,0-.1c0-.24,0-.48,0-.72q0-23.91,0-47.81a1.77,1.77,0,0,0,0-.3.89.89,0,0,0-.09-.16,3.85,3.85,0,0,0-1.52-.31l-3.8-.06-1.16,0a4.17,4.17,0,0,1-.13-1.63c0-.54,0-1.08,0-1.67.26,0,.46-.08.65-.09s.48,0,.72,0h38.76a1.76,1.76,0,0,1,1.82,1.71c.08.85.13,1.71.19,2.56q.29,4.31.57,8.62.11,1.64.21,3.28a1.08,1.08,0,0,1-.06.28,10.46,10.46,0,0,1-3.47.31,2.42,2.42,0,0,1-.08-.37q-.22-3.54-.44-7.08c-.07-1.06-.13-2.12-.21-3.18a9.11,9.11,0,0,0-.17-1,1.66,1.66,0,0,0-1.64-1.44c-.61-.06-1.23-.09-1.85-.09H210a1.63,1.63,0,0,0-1,.14c-.11.95-.1,48.59,0,49.49a4.13,4.13,0,0,0,1.28.08c.44,0,.89,0,1.37,0a5.43,5.43,0,0,0,.12-.64c0-.31,0-.62,0-.93q0-11.67,0-23.34V80.26c.35-.33.71-.23,1-.23h10a3.1,3.1,0,0,0,.26-.68c.16-1.22.36-2.44.41-3.67.09-2.05.08-4.11.11-6.17a2.2,2.2,0,0,1,.15-1.17,22.29,22.29,0,0,1,3.17,0c0,.23.07.43.08.62s0,.34,0,.51q0,12.39,0,24.78c0,.33,0,.67,0,1.05a28.83,28.83,0,0,1-3.18.06,1.76,1.76,0,0,1-.19-1.15c0-2.09,0-4.18-.11-6.27-.05-1.19-.25-2.38-.4-3.57a4.26,4.26,0,0,0-.24-.73c-2.52,0-5,0-7.56,0a4.43,4.43,0,0,0-.09.63q0,10.69,0,21.39c0,.17,0,.34,0,.5a1.7,1.7,0,0,0,1.11.15h20.36a11.61,11.61,0,0,0,1.44-.07,1.7,1.7,0,0,0,1.6-1.48,9.9,9.9,0,0,0,.18-1.12c.16-2.46.3-4.93.45-7.39.06-1,.15-2,.23-3.12a18.05,18.05,0,0,1,3.44.22,3.07,3.07,0,0,1,.08.59q-.3,4.77-.62,9.54-.13,2.05-.26,4.1c0,.21,0,.41,0,.62a1.82,1.82,0,0,1-1.82,1.73c-.2,0-.41,0-.62,0H199.59C199.25,110,198.92,109.95,198.44,109.93Z"/><path class="cls-2" d="M84.1,109.93c0-1.16,0-2.22,0-3.32.29,0,.52-.08.75-.09,1.13,0,2.26,0,3.39,0a15.84,15.84,0,0,0,1.83-.21,3.17,3.17,0,0,0,.62-.22l.08-.15a.32.32,0,0,0,0-.1c0-.17,0-.34,0-.51q0-24,0-48a1.87,1.87,0,0,0,0-.31.9.9,0,0,0-.09-.17,4,4,0,0,0-1.62-.31l-3.91-.06a1.7,1.7,0,0,1-1-.12,12.79,12.79,0,0,1,0-3.22c.18,0,.37-.07.57-.08s.55,0,.82,0h38.76a1.82,1.82,0,0,1,1.74,1.69c0,.62.1,1.23.14,1.84.16,2.53.32,5.06.48,7.59.1,1.5.2,3,.3,4.51,0,.27,0,.54,0,.8a11,11,0,0,1-3.48.33,2.2,2.2,0,0,1-.09-.37Q123.21,66.2,123,63c-.08-1.27-.14-2.53-.24-3.8a7.71,7.71,0,0,0-.2-1.11,1.6,1.6,0,0,0-1.5-1.33,16.5,16.5,0,0,0-1.85-.11H95.79a2.06,2.06,0,0,0-1.1.12c-.11.81-.12,48.46,0,49.5a9.87,9.87,0,0,0,2.76,0c0-.41,0-.78,0-1.15q0-8.38,0-16.76,0-3.6,0-7.2c0-.33,0-.67,0-1A2.08,2.08,0,0,1,98.69,80h8.74l1.1,0a5,5,0,0,0,.47-1.94,73,73,0,0,0,.33-8.42c0-.34,0-.68,0-1a.6.6,0,0,1,.08-.19,9.77,9.77,0,0,1,3.2,0c0,.17.06.36.08.56s0,.48,0,.72q0,12.18,0,24.37a4.1,4.1,0,0,1-.09,1.26,22.63,22.63,0,0,1-3.16,0,2.41,2.41,0,0,1-.15-1.16c0-2.12,0-4.25-.13-6.37-.05-1.16-.25-2.31-.4-3.47a3.15,3.15,0,0,0-.22-.63c-1.08-.11-6.72-.1-7.61,0,0,.17-.06.37-.07.56,0,.38,0,.75,0,1.13q0,9.77,0,19.54c0,.41,0,.81,0,1.21a1.94,1.94,0,0,0,1.15.15h20.46a9.66,9.66,0,0,0,1.43-.09,1.65,1.65,0,0,0,1.47-1.38,8.83,8.83,0,0,0,.2-1.22c.16-2.46.3-4.92.46-7.39.06-1,.15-2,.23-3.11a17.78,17.78,0,0,1,3.44.22,3.35,3.35,0,0,1,.07.6q-.31,4.87-.64,9.74c-.09,1.37-.17,2.74-.26,4.1,0,.17,0,.34,0,.51a1.8,1.8,0,0,1-1.62,1.61,6.55,6.55,0,0,1-.82,0H85.25C84.91,110,84.58,109.95,84.1,109.93Z"/><path class="cls-2" d="M307.7,56.68c-.12,1-.11,48.51,0,49.39a2.35,2.35,0,0,0,.54.21,17.62,17.62,0,0,0,1.94.22c1.16,0,2.33,0,3.5,0h1a8,8,0,0,1,.14,3.29c-.25.25-.58.15-.87.15H298.2c-.34,0-.67,0-1,0a9.15,9.15,0,0,1,0-3.35c.21,0,.44-.06.67-.06,1.13,0,2.26,0,3.39,0a17.71,17.71,0,0,0,1.94-.22,2.25,2.25,0,0,0,.53-.22c.15-1.19.21-40.9.08-48.46,0-.23,0-.47-.06-.74a4.65,4.65,0,0,0-1.71-.34l-3.8-.06-1,0a8.2,8.2,0,0,1-.05-3.33c.21,0,.44-.06.67-.06,7.68,0,15.35,0,23,0a25.6,25.6,0,0,1,10.47,2.26,18.62,18.62,0,0,1,7,5.27,14.75,14.75,0,0,1,3.38,9.8A15,15,0,0,1,337,81.18a20.39,20.39,0,0,1-8.3,4.77l-1.41.45a4.61,4.61,0,0,0,.34.35A15.07,15.07,0,0,1,331.15,91a33.65,33.65,0,0,1,2.42,5.21c.55,1.44,1.07,2.89,1.64,4.32a15.83,15.83,0,0,0,1.73,3.38,12,12,0,0,0,1.4,1.63,3,3,0,0,0,1.73.83,2.47,2.47,0,0,0,1.94-.47,7.55,7.55,0,0,1,.74-.55,2.09,2.09,0,0,1,2.33-.06,2.17,2.17,0,0,1,1.06,2.18,2,2,0,0,1-.79,1.39,7.05,7.05,0,0,1-3.43,1.54,11.62,11.62,0,0,1-1.54.1,6.38,6.38,0,0,1-4.34-1.6,10.55,10.55,0,0,1-2.06-2.42,22.67,22.67,0,0,1-2.05-4.25c-.62-1.67-1.19-3.36-1.83-5-.44-1.15-.94-2.28-1.47-3.39a17.1,17.1,0,0,0-1.19-2,9.37,9.37,0,0,0-5.77-4,22.3,22.3,0,0,0-5-.58c-1.68,0-3.36,0-5,0-.34,0-.67,0-1.07,0,0-.23-.08-.42-.09-.62s0-.48,0-.72q0-12.49,0-25c0-.41,0-.81,0-1.22a4.31,4.31,0,0,1,1.77-.15c.54,0,1.09,0,1.57,0,.31.32.22.65.22.94q0,5.3-.05,10.59c0,3.8-.08,7.61-.11,11.41,0,.37,0,.74,0,1.13a2.48,2.48,0,0,0,.45.09c2.77,0,5.55.12,8.32-.15A21.36,21.36,0,0,0,331,81a15,15,0,0,0,4-3.17,11.63,11.63,0,0,0,0-15.49,16.25,16.25,0,0,0-6.84-4.4,24.27,24.27,0,0,0-8.07-1.32c-3.84,0-7.68,0-11.52,0C308.28,56.62,308,56.66,307.7,56.68Z"/><path class="cls-2" d="M277.3,56.42a13,13,0,0,1,0-3.31,4.18,4.18,0,0,1,.57-.07H294.1c.2,0,.4,0,.58.05a10.43,10.43,0,0,1,0,3.26,4.37,4.37,0,0,1-.65.11c-1.06,0-2.12,0-3.19.06a12.67,12.67,0,0,0-1.62.22,2.25,2.25,0,0,0-.51.25v1.22q0,16.24,0,32.48a21.26,21.26,0,0,1-.41,4.7,17.74,17.74,0,0,1-12.94,13.93,19.35,19.35,0,0,1-11.75-.06c-6.22-2-10.14-6.28-11.93-12.53a21.57,21.57,0,0,1-.7-6q0-16.19,0-32.38c0-.44,0-.89,0-1.35a2.62,2.62,0,0,0-.58-.27,11.84,11.84,0,0,0-1.63-.22c-1.13,0-2.26,0-3.39,0l-1.06,0a25.13,25.13,0,0,1-.09-3.32c.28,0,.44-.05.6-.06,3.43-.1,18.07,0,19,.08a9.39,9.39,0,0,1,0,3.26c-.93.2-1.89,0-2.82.13-.28.26-.17.59-.17.88q0,5.45,0,10.9.05,7.61.13,15.21c0,.23,0,.47,0,.68a9.6,9.6,0,0,1-3.54,0c-.07-.89,0-1.81,0-2.73s0-1.78,0-2.67V65.12q0-1.39,0-2.78c0-.89,0-1.78,0-2.67s0-1.84,0-2.78a12.36,12.36,0,0,0-2.57-.09c0,.25-.08.43-.1.63s0,.34,0,.51q0,16.5,0,33a17.69,17.69,0,0,0,.76,5.47c1.69,5.27,5.21,8.63,10.64,9.76a16.16,16.16,0,0,0,11.9-1.9,14,14,0,0,0,6.74-9.64,17.46,17.46,0,0,0,.34-3.57q0-16.55,0-33.1c0-1.23,0-1.12-1.15-1.36a6.81,6.81,0,0,0-1.23-.11l-4.42,0Z"/><path class="cls-2" d="M351.77,104.27c-.17,2.23-.05,4.25-.28,6.23a11.46,11.46,0,0,1-3.25.06,3.3,3.3,0,0,1-.08-.56c0-1,0-2,.06-3q.2-5.91.41-11.81c0-.27.06-.53.08-.78a10,10,0,0,1,3.21,0c.22.3.11.65.13,1,0,.68,0,1.38.11,2a7.78,7.78,0,0,0,2.26,4.29,12.93,12.93,0,0,0,3.24,2.34,20.55,20.55,0,0,0,5.92,2,26.79,26.79,0,0,0,11.42-.36,15.61,15.61,0,0,0,4.09-1.63,9.74,9.74,0,0,0,2.68-2.21,6.84,6.84,0,0,0,1.62-4.34,10.5,10.5,0,0,0-3-7.65c-.44-.47-.93-.91-1.4-1.36-.28.24,0,.41,0,.55a17.33,17.33,0,0,1,1.31,3.88,11.23,11.23,0,0,1-.07,5.29,7.82,7.82,0,0,1-3.38,4.62,11.1,11.1,0,0,1-4,1.55,22.24,22.24,0,0,1-6.24.21s-.06,0-.08-.06a10.14,10.14,0,0,1,0-3.56,3.22,3.22,0,0,1,1.09.07,15.47,15.47,0,0,0,4.2.11,7.27,7.27,0,0,0,3.07-1.09,4.89,4.89,0,0,0,2.26-3.94,9.66,9.66,0,0,0-.52-3.74,18,18,0,0,0-3.71-6.23,21,21,0,0,0-6-4.79c-1.57-.83-3.16-1.63-4.74-2.46A38.74,38.74,0,0,1,357.39,76a18.2,18.2,0,0,1-3.8-3.59,12.05,12.05,0,0,1-2.52-9.06,9.67,9.67,0,0,1,2.26-5.1,13.55,13.55,0,0,1,5.19-3.77,20.54,20.54,0,0,1,5.95-1.5,20.21,20.21,0,0,1,7.93.68A16.81,16.81,0,0,1,378.79,57c.14.12.31.23.56.42a9.74,9.74,0,0,0,0-1.73c0-.55-.05-1.1-.06-1.64a10.83,10.83,0,0,1,0-1.6,8.75,8.75,0,0,1,3.34,0c0,.25.07.51.08.78q.27,6.78.54,13.56a4.29,4.29,0,0,1,0,.51,1.68,1.68,0,0,1-1.65,1.64,1.66,1.66,0,0,1-1.78-1.49c-.12-.78-.19-1.56-.35-2.33a9.56,9.56,0,0,0-4.3-6.27,14.11,14.11,0,0,0-5.43-2.08,17.81,17.81,0,0,0-8.43.56,11.17,11.17,0,0,0-4,2.17,6.75,6.75,0,0,0-2.51,4.68,8.33,8.33,0,0,0,1.17,5,11.07,11.07,0,0,0,2.1,2.52,20.29,20.29,0,0,0,3.76,2.68c1.28.72,2.59,1.39,3.89,2.09,3.47,1.86,6.95,3.71,10.4,5.6a31.75,31.75,0,0,1,5.28,3.55,17.57,17.57,0,0,1,3.44,3.79,13.72,13.72,0,0,1,2.2,9.7,10.06,10.06,0,0,1-2.53,5.3,14.21,14.21,0,0,1-4.41,3.31,22.27,22.27,0,0,1-6.55,2,31.13,31.13,0,0,1-5.53.4,28.2,28.2,0,0,1-10.22-2,18.19,18.19,0,0,1-5.47-3.4Z"/><path class="cls-3" d="M181.86,33.56V35.3a25.36,25.36,0,0,1-5.33.06,2.88,2.88,0,0,1-.06-1.79l1.46-.48a44.56,44.56,0,0,0,0-7.78L176.44,25V23.26c1.19-.38,2.52-.42,5.33-.18l3.93,6.67c.42,0,.44-.28.44-.53,0-1.25,0-2.5,0-3.86l-1.4-.41a2.57,2.57,0,0,1,0-1.93A48.82,48.82,0,0,1,190,23a3,3,0,0,1,0,2l-1.42.32a2.14,2.14,0,0,0-.16.55c0,2.57,0,5.15,0,7.72,0,.62,0,1.24,0,2-.52.07-.93.15-1.35.17s-.87,0-1.29,0a42.12,42.12,0,0,1-2.58-4.25c-.83-1.36-1.55-2.79-2.46-4.2-.19.27-.31.36-.31.45,0,1.75,0,3.51,0,5.34Z"/><path class="cls-3" d="M216.22,31.59V35.2a3.57,3.57,0,0,1-.87.23q-4.61,0-9.22,0a4.51,4.51,0,0,1-.78-.15V33.56l1.21-.46a42.31,42.31,0,0,0,0-7.76L205.44,25a2.44,2.44,0,0,1,0-1.82,83.41,83.41,0,0,1,10.64-.06,9.39,9.39,0,0,1,.14,3.55c-.41.05-.77.12-1.12.14s-.62,0-1,0c-.08-.24-.17-.45-.23-.68s-.12-.48-.19-.75a12,12,0,0,0-3.25-.09,4.53,4.53,0,0,0-.19,2.63l2.67.16c.48.59.3,1.21.23,1.85-.83.59-1.85,0-2.82.46a6,6,0,0,0,0,2.89,10.38,10.38,0,0,0,3.3,0l.46-1.6A3.7,3.7,0,0,1,216.22,31.59Z"/><path class="cls-3" d="M201.29,23.63c.59-.89,1.4-.67,2.29-.59a11.6,11.6,0,0,1,.06,4.29H201.7c-.18-.25-.36-.5-.53-.76a3.14,3.14,0,0,0-3.46-1.34,3.18,3.18,0,0,0-2.5,2.31,5,5,0,0,0-.06,3.33,3.29,3.29,0,0,0,6,.75c.25-.42.45-.87.74-1.43l2.3,1.06a5.1,5.1,0,0,1-2.7,3.68,5.93,5.93,0,0,1-2.89.75,12.23,12.23,0,0,1-2.61-.25,5.66,5.66,0,0,1-4.61-5.25,8.44,8.44,0,0,1,.12-2.62,5.86,5.86,0,0,1,4.87-4.63A7.23,7.23,0,0,1,201.29,23.63Z"/><path class="cls-3" d="M161.8,35.09a2.88,2.88,0,0,1-2.38.21,5.8,5.8,0,0,1-.14-.88c0-1,0-2,0-3a3.24,3.24,0,0,1,2-.11c.11.3.22.64.35,1a1.92,1.92,0,0,0,1.18,1.14,1.28,1.28,0,0,0,1.49-.49,1.12,1.12,0,0,0-.08-1.54,10.92,10.92,0,0,0-1.52-1.08c-.79-.51-1.64-.92-2.38-1.5a3.49,3.49,0,0,1-.86-4.26,3.26,3.26,0,0,1,3.84-1.61,3.35,3.35,0,0,0,2.12.07,4.34,4.34,0,0,1,1.36,0c0,.64.1,1.18.1,1.73s0,1.23-.08,1.91h-1.93a5.08,5.08,0,0,0-.71-1.14,2.75,2.75,0,0,0-1.13-.57,1.08,1.08,0,0,0-1.08.59,1,1,0,0,0,.36,1.16c.46.32,1,.58,1.45.85.71.4,1.46.73,2.13,1.19a3.93,3.93,0,0,1,1.25,5,3.66,3.66,0,0,1-4,1.82A12.28,12.28,0,0,1,161.8,35.09Z"/><path class="cls-3" d="M242.74,32.22l2-.22c.25.38.42.71.65,1a1.19,1.19,0,0,0,2-.08,2.8,2.8,0,0,0,.48-2.24c-.53.07-1,.18-1.58.22a3.28,3.28,0,0,1-3.73-3.1,7.42,7.42,0,0,1-.05-.94c0-2.86,2.19-4.74,5.42-3.89a3.16,3.16,0,0,1,1.8,1.28,4.13,4.13,0,0,1,.63,1.15,12,12,0,0,1-.06,7.57A4,4,0,0,1,246,35.68C244.15,35.6,243.19,34.63,242.74,32.22Zm2.42-5.3a5.65,5.65,0,0,0,.14.93,1.41,1.41,0,0,0,1.8.92c.86-.21,1.08-.55.94-1.51a6.86,6.86,0,0,0-.17-.92c-.27-.93-.85-1.48-1.5-1.46S245.18,25.66,245.15,26.92Z"/><path class="cls-3" d="M260.72,26.15a2.07,2.07,0,0,1-.51.16c-.43,0-.87,0-1.33,0a10.57,10.57,0,0,0-.77-1.05,1.1,1.1,0,0,0-1.66,0,3.41,3.41,0,0,0-.82,2.33c.47.38.79,0,1.13,0A3.42,3.42,0,0,1,261.08,31a8.58,8.58,0,0,1,0,1.13,3.59,3.59,0,0,1-2.9,3.47,4.31,4.31,0,0,1-4.57-1.83c-1.13-1.81-1.14-7,0-8.95a4.52,4.52,0,0,1,5.44-1.74C260.19,23.58,260.72,24.56,260.72,26.15Zm-3.88,3.49c-.47.06-1.11.07-1.2.65a3.29,3.29,0,0,0,.75,3,1.11,1.11,0,0,0,1.65-.14,2.84,2.84,0,0,0,.11-2.84A1.37,1.37,0,0,0,256.84,29.63Z"/><path class="cls-3" d="M237.87,30.62a18.29,18.29,0,0,1-1.81.29A3.29,3.29,0,0,1,232.49,28a7,7,0,0,1,0-1.87,3.69,3.69,0,0,1,3.11-3.3,4,4,0,0,1,4.47,2c.92,1.6,1,6.87-.11,8.79a4.31,4.31,0,0,1-5.58,1.6,2.84,2.84,0,0,1-1.63-2.72,2.19,2.19,0,0,1,2-.39,8.42,8.42,0,0,0,.59.91,1.18,1.18,0,0,0,1.93,0C237.63,32.53,237.72,32.17,237.87,30.62Zm.21-2.75a4.87,4.87,0,0,0-.86-2.55,1.11,1.11,0,0,0-1.87.18,2.69,2.69,0,0,0-.28,1.8,1.52,1.52,0,0,0,2.39,1.3C237.75,28.45,237.91,28.08,238.08,27.86Z"/><path class="cls-3" d="M170.19,33.15a47.39,47.39,0,0,0,0-7.86L168.55,25V23.25a22.25,22.25,0,0,1,6.89-.07,2.46,2.46,0,0,1-.07,1.85l-1.42.23c-.34.51-.41,4.53-.14,7.8l1.5.43c.07.1.19.19.19.29,0,.48,0,1,0,1.43a28,28,0,0,1-6.89.06,2.19,2.19,0,0,1,0-1.79Z"/><path class="cls-3" d="M227.87,23.08a16.82,16.82,0,0,1,.13,3.4c0,1.07,0,2.13,0,3.2v3.46l1.46.48c.37.49.19,1,.15,1.49-.51.46-4.29.47-6.06.08V33.66l1.49-.39a47.07,47.07,0,0,0,.05-8l-1.59-.42a5.39,5.39,0,0,1-.1-.75c0-.3.05-.61.09-1,.54,0,1-.11,1.51-.11A13.85,13.85,0,0,1,227.87,23.08Z"/><path class="cls-4" d="M52.07,140.19c-1,3.72-4.15,6-8.27,6-5.05,0-8.55-3.62-8.55-8.8s3.37-8.83,8.5-8.83a9,9,0,0,1,5.63,1.84v-1.56h2.21v5.48H49.38a6,6,0,0,0-5.51-3.5c-3.39,0-5.81,2.72-5.81,6.49s2.54,6.56,5.91,6.56a6.14,6.14,0,0,0,5.86-4.9Z"/><path class="cls-4" d="M59,139.89l-1.33,3.87h2.09v2.14H53v-2.14H55l4.68-13h-2v-1.91h8.73v1.91h-2l4.6,13h1.91v2.14H64.25v-2.14h2.11l-1.26-3.87Zm3.22-9.15H62l-2.36,7.17h4.85Z"/><path class="cls-4" d="M73.88,131H71.72v-2.14H85V134H82.86v-3H76.45V136H82v2.14H76.45v5.61h2.21v2.14H71.72v-2.14h2.16Z"/><path class="cls-4" d="M88.59,131H86.38v-2.14h14.16V134H98.43v-3H91.16V136H97.5v2.14H91.16v5.58h7.27v-3.12h2.11v5.26H86.38v-2.14h2.21Zm4.4-7.62h3.39l-3.54,3.9H91.26Z"/><path class="cls-4" d="M104.09,142.88h3v3c0,2.19-.78,3.37-3,3.39V148c1.08-.25,1.51-.75,1.51-2.14h-1.51Z"/><path class="cls-4" d="M117.27,131h-2.34v-2.14h7.9c3.85,0,5.43,1.86,5.43,4.45a4.18,4.18,0,0,1-3.52,4.27l3,6.21h2.09v2.14h-3.7l-3.87-8h-2.44v5.86H122v2.14h-7.12v-2.14h2.34Zm5.46,4.8c2.41,0,2.92-1.36,2.92-2.49,0-1.51-1.06-2.31-2.69-2.31h-3.12v4.8Z"/><path class="cls-4" d="M133.24,131H131v-2.14h14.16V134h-2.11v-3h-7.27V136h6.34v2.14h-6.34v5.58h7.27v-3.12h2.11v5.26H131v-2.14h2.21Z"/><path class="cls-4" d="M147.43,139.71h2.11v1.51c1.08,1.84,2.34,2.82,4,2.82a2.87,2.87,0,0,0,3-2.87c0-3.34-5.36-2.19-8-4.85a4.21,4.21,0,0,1-1.13-3.09c0-3.17,2.41-4.68,5-4.68a6.25,6.25,0,0,1,3.82,1.33v-1.13h2.11v5.16h-2.11v-1.18a4.09,4.09,0,0,0-3.62-2c-1.73,0-2.87.88-2.87,2.19a2.07,2.07,0,0,0,.58,1.46c1.33,1.33,5.43,1.11,7.42,3.09a5.3,5.3,0,0,1,1.46,3.67,5.09,5.09,0,0,1-5.41,5,6,6,0,0,1-4.2-1.68v1.41h-2.11Z"/><path class="cls-4" d="M174.56,135.31h-2.11V131h-3.52v12.8h2.24v2.14h-7v-2.14h2.24V131h-3.52v4.35h-2.11v-6.49h13.83Z"/><path class="cls-4" d="M180.55,139.89l-1.33,3.87h2.09v2.14h-6.74v-2.14h2.06l4.68-13h-2v-1.91H188v1.91h-2l4.6,13h1.91v2.14h-6.69v-2.14h2.11l-1.26-3.87Zm3.22-9.15h-.23l-2.36,7.17H186Z"/><path class="cls-4" d="M202.23,131v-2.14h6.69V131h-2.14v9.83c0,4.4-3.19,5.38-5.91,5.38-4.93,0-6.19-2.49-6.19-5.41V131h-2.14v-2.14h6.69V131h-2v9.88c0,2.44,1.48,3.27,3.42,3.27,2.54,0,3.55-1.08,3.55-3.47V131Z"/><path class="cls-4" d="M212.44,131h-2.34v-2.14H218c3.85,0,5.43,1.86,5.43,4.45a4.18,4.18,0,0,1-3.52,4.27l3,6.21H225v2.14h-3.7l-3.87-8H215v5.86h2.21v2.14h-7.12v-2.14h2.34Zm5.46,4.8c2.41,0,2.92-1.36,2.92-2.49,0-1.51-1.06-2.31-2.69-2.31H215v4.8Z"/><path class="cls-4" d="M231.28,139.89,230,143.76H232v2.14H225.3v-2.14h2.06l4.68-13h-2v-1.91h8.73v1.91h-2l4.6,13h1.91v2.14h-6.69v-2.14h2.11l-1.26-3.87Zm3.22-9.15h-.23l-2.36,7.17h4.85Z"/><path class="cls-4" d="M246.12,131h-2.44v-2.14h5.83l7.39,13.28H257V131h-2.39v-2.14h7V131h-2.51v15.11h-2.69l-8.1-14.58h0v12.27h2.46v2.14h-7v-2.14h2.44Z"/><path class="cls-4" d="M276.3,135.31h-2.11V131h-3.52v12.8h2.24v2.14h-7v-2.14h2.24V131h-3.52v4.35h-2.11v-6.49H276.3Z"/><path class="cls-4" d="M300.4,136.87V139h-1.81a10.05,10.05,0,0,1-1.69,3.65l.91,1.16h2.59v2.14h-3.9l-1.13-1.51a7.07,7.07,0,0,1-4.53,1.79,5.8,5.8,0,0,1-6.11-5.76c0-2.26,1.31-4,3.87-5.13a4.82,4.82,0,0,1-1.16-3,3.93,3.93,0,0,1,4.15-3.77,3.82,3.82,0,0,1,4.07,3.65c0,1.66-.93,2.92-3.57,3.9l3.47,4.7a12,12,0,0,0,1.33-3.92Zm-10.49,0c-1.71.78-2.57,1.91-2.57,3.42a3.79,3.79,0,0,0,3.77,3.75,4.12,4.12,0,0,0,2.94-1.36Zm3.45-4.73a1.52,1.52,0,0,0-1.74-1.53,1.59,1.59,0,0,0-1.79,1.63,4.37,4.37,0,0,0,1,2.24C292.7,133.68,293.36,133.07,293.36,132.14Z"/><path class="cls-4" d="M309,143.76l9.15-12.8h-6.64v3h-2.11v-5.13h12v1.89L312,143.76h7.49v-3.29h2.11v5.43H309Z"/><path class="cls-4" d="M328.8,139.89l-1.33,3.87h2.09v2.14h-6.74v-2.14h2.06l4.68-13h-2v-1.91h8.73v1.91h-2l4.6,13h1.91v2.14h-6.69v-2.14h2.11l-1.26-3.87Zm3.22-9.15h-.23l-2.36,7.17h4.85Z"/><path class="cls-4" d="M343.71,131h-2.26v-2.14h7V131h-2.16v12.8h5.33V138H354v7.95H341.45v-2.14h2.26Z"/><path class="cls-4" d="M357.65,131h-2.21v-2.14h14.16V134h-2.11v-3h-7.27V136h6.34v2.14h-6.34v5.58h7.27v-3.12h2.11v5.26H355.44v-2.14h2.21Z"/><path class="cls-4" d="M373.52,131h-2.44v-2.14h5.83l7.39,13.28h.05V131H382v-2.14h7V131h-2.51v15.11h-2.69l-8.1-14.58h0v12.27h2.46v2.14h-7v-2.14h2.44Z"/></g></g></svg>